<mxfile host="app.diagrams.net" modified="2022-07-31T21:03:24.988Z" agent="5.0 (Macintosh)" etag="U-mbnmkriZAvvtPwwosz" version="20.2.2" type="github">
  <diagram id="OlmW_olgugoicT1y2jTO" name="Page-1">
    <mxGraphModel dx="556" dy="362" grid="0" gridSize="10" guides="1" tooltips="1" connect="1" arrows="1" fold="1" page="0" pageScale="1" pageWidth="850" pageHeight="1100" math="0" shadow="0">
      <root>
        <mxCell id="0" />
        <mxCell id="1" parent="0" />
        <mxCell id="-fFhvJ5DRmIFoTUWj622-1" value="************" style="rounded=1;whiteSpace=wrap;html=1;align=left;" vertex="1" parent="1">
          <mxGeometry x="164" y="116" width="104" height="20" as="geometry" />
        </mxCell>
        <mxCell id="-fFhvJ5DRmIFoTUWj622-2" value="Password" style="text;html=1;align=center;verticalAlign=middle;resizable=0;points=[];autosize=1;strokeColor=none;fillColor=none;" vertex="1" parent="1">
          <mxGeometry x="154" y="90" width="71" height="26" as="geometry" />
        </mxCell>
        <mxCell id="-fFhvJ5DRmIFoTUWj622-3" value="Login" style="rounded=1;fillColor=#0057D8;strokeColor=none;html=1;fontColor=#ffffff;align=center;verticalAlign=middle;fontStyle=0;fontSize=12;sketch=0;" vertex="1" parent="1">
          <mxGeometry x="164" y="155" width="86" height="33" as="geometry" />
        </mxCell>
      </root>
    </mxGraphModel>
  </diagram>
</mxfile>
